<?xml version="1.0" standalone="no"?>
<!DOCTYPE svg PUBLIC "-//W3C//DTD SVG 20010904//EN"
 "http://www.w3.org/TR/2001/REC-SVG-20010904/DTD/svg10.dtd">
<svg version="1.0" xmlns="http://www.w3.org/2000/svg"
 width="436.000000pt" height="436.000000pt" viewBox="0 0 436.000000 436.000000"
 preserveAspectRatio="xMidYMid meet">
<metadata>
Created by potrace 1.11, written by Peter Selinger 2001-2013
</metadata>
<g transform="translate(0.000000,436.000000) scale(0.100000,-0.100000)"
fill="#000000" stroke="none">
<path d="M1556 4346 c3 -8 -7 -23 -24 -35 -32 -23 -52 -27 -52 -11 0 20 -67
11 -81 -10 -8 -12 -27 -22 -44 -24 -16 -2 -31 -9 -33 -17 -3 -8 -10 -21 -17
-29 -7 -8 -16 -30 -20 -47 -8 -41 -31 -42 -53 -3 -9 16 -25 30 -34 30 -10 0
-18 6 -19 13 -1 29 -18 -32 -18 -69 -1 -30 5 -46 20 -60 20 -18 21 -25 15
-119 -4 -55 -9 -164 -11 -243 -3 -79 -9 -151 -13 -160 -5 -9 -15 -51 -22 -92
-14 -86 -31 -128 -59 -155 -19 -16 -20 -26 -14 -86 5 -55 3 -69 -8 -69 -11 0
-13 -23 -10 -125 3 -123 3 -125 -29 -192 -18 -37 -40 -76 -48 -86 -14 -16 -14
-19 6 -32 19 -14 20 -17 6 -43 -7 -15 -14 -39 -14 -53 0 -18 -6 -28 -19 -32
-28 -7 -61 -87 -61 -145 0 -27 -7 -63 -15 -78 -8 -16 -15 -49 -15 -74 0 -36
-6 -53 -31 -83 -17 -20 -37 -37 -45 -37 -10 0 -14 -14 -14 -58 0 -49 -5 -66
-29 -99 -38 -52 -40 -61 -42 -178 -2 -55 -6 -105 -10 -110 -10 -13 -7 -75 4
-92 5 -8 -2 -26 -17 -45 -13 -18 -40 -63 -59 -100 -20 -38 -49 -84 -66 -104
-16 -20 -32 -48 -36 -62 -3 -14 -22 -44 -41 -67 -19 -23 -34 -51 -34 -62 0
-11 -9 -28 -20 -38 -12 -10 -19 -24 -16 -31 3 -7 -4 -20 -15 -30 -10 -9 -19
-28 -19 -41 0 -28 -45 -114 -66 -126 -8 -4 -14 -17 -14 -27 0 -10 -4 -21 -9
-24 -5 -4 -12 -30 -16 -59 -3 -28 -9 -60 -11 -69 -3 -10 0 -18 7 -18 7 0 26
-10 43 -23 17 -13 39 -27 49 -30 11 -4 21 -15 24 -26 2 -10 23 -29 46 -41 23
-13 85 -66 137 -119 167 -168 260 -230 347 -231 28 0 55 -5 58 -10 3 -6 18
-10 32 -10 15 0 34 -6 42 -14 9 -7 39 -21 66 -31 28 -10 57 -24 66 -32 8 -7
27 -13 42 -13 14 0 29 -4 32 -10 3 -5 18 -10 33 -10 14 0 38 -11 53 -26 26
-25 30 -26 103 -19 l76 7 0 49 c0 43 21 204 35 265 3 12 15 24 27 28 21 5 98
96 98 116 0 4 17 22 38 38 51 41 99 127 81 148 -10 12 -8 19 11 39 20 22 32
25 89 25 49 0 70 5 85 18 12 11 50 31 86 45 55 22 85 26 198 30 117 4 136 7
155 25 23 21 100 44 122 36 6 -3 18 2 25 11 8 9 29 15 59 15 50 1 171 29 192
46 15 11 110 44 128 44 6 0 37 18 69 39 31 22 82 50 112 63 30 14 61 32 69 41
7 10 23 17 35 17 58 1 136 47 136 81 0 17 116 129 134 129 5 0 40 28 76 62
100 94 155 132 200 140 27 5 59 22 93 51 l52 44 100 2 c107 2 145 8 145 22 0
9 -63 29 -95 29 -26 1 -79 45 -71 59 4 6 22 11 39 12 42 1 129 49 144 79 15
30 12 33 -21 20 -15 -5 -56 -10 -90 -10 l-63 0 11 36 c6 20 30 57 54 81 23 24
42 46 42 48 0 2 -14 -1 -30 -7 -59 -20 -84 46 -35 92 14 13 25 30 25 39 0 9
-38 -22 -85 -69 -76 -76 -89 -85 -127 -87 -25 -2 -50 -11 -63 -23 -25 -24 -35
-18 -35 24 0 17 -9 40 -22 53 -12 13 -23 32 -23 41 -1 9 -2 30 -3 46 -2 24 -4
27 -17 16 -18 -15 -20 -61 -4 -77 8 -8 7 -19 -4 -40 -8 -15 -21 -55 -28 -88
-7 -33 -18 -67 -25 -75 -7 -8 -16 -47 -19 -87 -7 -64 -11 -75 -41 -104 -19
-18 -34 -40 -34 -49 0 -27 -52 -67 -97 -75 -22 -3 -49 -15 -59 -26 -17 -19
-45 -25 -58 -12 -13 14 -106 11 -117 -4 -6 -7 -17 -13 -24 -13 -7 0 -18 -7
-25 -15 -7 -8 -21 -15 -31 -15 -10 0 -30 -5 -46 -12 -15 -7 -39 -13 -53 -15
-14 -1 -41 -4 -60 -6 -19 -3 -40 0 -47 5 -17 14 -37 0 -24 -16 11 -13 -4 -36
-23 -36 -6 0 -29 -18 -51 -40 -38 -38 -42 -39 -76 -30 -20 6 -52 8 -70 5 -97
-13 -153 -25 -165 -36 -8 -6 -27 -9 -43 -6 -32 7 -81 -13 -119 -46 -21 -19
-26 -20 -65 -8 -23 7 -62 12 -87 12 -37 -2 -50 3 -69 23 -13 14 -37 28 -53 31
-18 4 -33 16 -38 30 -5 13 -23 31 -39 39 -36 19 -46 45 -29 77 13 25 148 154
228 218 47 38 80 86 80 116 0 11 7 33 15 48 9 17 14 56 14 101 0 68 -3 76 -30
102 -22 21 -28 35 -24 51 4 19 -3 29 -47 57 -29 19 -66 48 -82 65 -23 24 -38
31 -67 31 -21 0 -41 5 -44 10 -8 13 -122 13 -130 0 -3 -6 -23 -10 -44 -10 -22
0 -44 -6 -51 -15 -7 -8 -22 -15 -34 -16 -25 -1 -106 -48 -117 -69 -5 -8 -17
-36 -28 -61 -11 -26 -27 -49 -36 -53 -8 -3 -15 -12 -15 -20 0 -8 -8 -19 -17
-25 -13 -7 -17 -23 -18 -63 0 -31 -5 -56 -12 -61 -7 -4 -13 -14 -13 -21 0 -7
-13 -25 -29 -40 -36 -34 -43 -31 -129 58 -58 59 -62 65 -44 75 18 9 19 23 19
183 1 139 -2 176 -14 190 -13 15 -12 21 12 63 20 33 26 54 21 75 -3 19 -1 30
5 30 6 0 9 9 6 19 -3 13 6 32 25 53 l30 33 -6 246 c-6 234 -6 248 13 280 18
30 20 55 22 234 3 262 10 319 45 356 15 16 25 32 21 35 -3 4 9 31 28 60 19 30
32 60 29 69 -4 9 1 18 12 22 29 10 94 66 94 81 0 8 -16 12 -47 12 -31 1 -56 7
-69 18 -23 19 -39 68 -25 76 5 3 12 39 16 81 4 41 11 77 16 81 12 7 12 44 -1
44 -5 0 -7 -6 -4 -14z m-218 -288 c-22 -22 -25 -22 -25 -3 0 8 4 12 8 9 4 -2
10 0 14 6 3 5 1 10 -5 10 -6 0 -8 4 -5 10 4 6 11 6 19 -2 10 -9 9 -15 -6 -30z
m-73 -18 c3 -6 -1 -7 -9 -4 -18 7 -21 14 -7 14 6 0 13 -4 16 -10z m265 -65
c-7 -9 -15 -13 -19 -10 -3 3 1 10 9 15 21 14 24 12 10 -5z m-97 -2 c-20 -8
-15 -23 7 -23 11 0 20 -5 20 -11 0 -6 -9 -8 -21 -4 -13 5 -19 3 -15 -3 7 -12
-27 -22 -54 -15 -24 6 -17 21 18 35 25 10 26 11 7 18 -16 7 -13 9 15 9 19 -1
29 -3 23 -6z m60 0 c-7 -2 -19 -2 -25 0 -7 3 -2 5 12 5 14 0 19 -2 13 -5z m7
-19 c0 -8 -19 -13 -24 -6 -3 5 1 9 9 9 8 0 15 -2 15 -3z m-130 -53 c0 -6 -4
-12 -8 -15 -5 -3 -9 1 -9 9 0 8 4 15 9 15 4 0 8 -4 8 -9z m-135 -330 c-3 -6
-11 -11 -16 -11 -5 0 -4 6 3 14 14 16 24 13 13 -3z m-25 -132 c0 -6 -4 -7 -10
-4 -5 3 -10 11 -10 16 0 6 5 7 10 4 6 -3 10 -11 10 -16z m-10 -65 c0 -2 -7 -4
-15 -4 -8 0 -15 4 -15 10 0 5 7 7 15 4 8 -4 15 -8 15 -10z m722 -1286 c-3 -12
-1 -19 5 -15 5 3 10 0 10 -8 0 -8 -4 -15 -9 -15 -5 0 -6 -4 -3 -10 3 -5 1 -10
-5 -10 -6 0 -8 -4 -5 -10 3 -5 -3 -10 -14 -10 -26 0 -26 5 0 31 14 14 18 24
11 31 -11 11 -5 38 8 38 5 0 6 -10 2 -22z m-72 -38 c0 -5 -5 -10 -11 -10 -5 0
-7 5 -4 10 3 6 8 10 11 10 2 0 4 -4 4 -10z m50 0 c0 -5 -4 -10 -10 -10 -5 0
-10 5 -10 10 0 6 5 10 10 10 6 0 10 -4 10 -10z m-84 -8 c-10 -10 15 -31 30
-25 8 3 14 0 14 -6 0 -6 -16 -11 -37 -10 -21 0 -32 3 -25 6 24 9 12 25 -15 19
-16 -3 -22 -3 -15 0 6 3 10 9 7 14 -2 4 7 8 21 8 13 0 22 -3 20 -6z m-61 -46
l-30 -14 28 -11 c16 -6 25 -16 22 -22 -4 -6 -13 -8 -20 -5 -9 3 -11 -2 -7 -16
4 -15 2 -19 -7 -13 -7 4 -10 17 -7 30 4 14 1 25 -7 29 -15 6 20 36 42 36 9 -1
3 -7 -14 -14z m55 -16 c-8 -5 -19 -10 -25 -10 -5 0 -3 5 5 10 8 5 20 10 25 10
6 0 3 -5 -5 -10z m-139 -24 c5 3 9 -2 9 -11 0 -9 5 -13 10 -10 6 3 10 1 10 -4
0 -14 -17 -14 -25 -1 -4 6 -11 7 -17 4 -7 -4 -8 -2 -4 4 4 7 2 12 -4 12 -6 0
-8 5 -4 12 6 9 9 9 12 0 2 -7 8 -10 13 -6z m29 -46 c4 0 6 -9 3 -20 -6 -22
-18 -26 -28 -10 -4 6 -10 8 -15 5 -4 -3 -6 4 -3 16 4 12 11 18 20 15 8 -3 18
-6 23 -6z"/>
<path d="M4145 2149 c-12 -19 5 -23 22 -6 16 16 16 17 1 17 -9 0 -20 -5 -23
-11z"/>
</g>
</svg>
